<?xml version="1.0" encoding="UTF-8"?>
<svg width="62px" height="62px" viewBox="0 0 62 62" version="1.1" xmlns="http://www.w3.org/2000/svg" xmlns:xlink="http://www.w3.org/1999/xlink">
    <!-- Generator: Sketch 51.2 (57519) - http://www.bohemiancoding.com/sketch -->
    <title>instagram</title>
    <desc>Created with Sketch.</desc>
    <defs></defs>
    <g id="Page-1" stroke="none" stroke-width="1" fill="none" fill-rule="evenodd" stroke-linecap="round" stroke-linejoin="round">
        <g id="instagram" transform="translate(1.000000, 1.000000)" stroke="#FFFFFF" stroke-width="2">
            <path d="M42.122,0 L17.87,0 C8.01546177,0.00273184142 0.0220517357,7.98048606 -3.55271368e-15,17.835 L-3.55271368e-15,42.035 C0.0226021457,51.8891233 8.0158512,59.8662695 17.87,59.869 L42.122,59.869 C51.979661,59.8706791 59.977941,51.8916365 60,42.034 L60,17.834 C59.9773905,7.97675424 51.9792715,-0.00168029697 42.122,0 Z M53.96,42.034 C53.9565541,45.1701856 52.7074034,48.1765521 50.4873474,50.3917322 C48.2672913,52.6069123 45.2581856,53.8494497 42.122,53.846 L17.87,53.846 C14.7338144,53.8494497 11.7247087,52.6069123 9.50465261,50.3917322 C7.28459655,48.1765521 6.03544592,45.1701856 6.032,42.034 L6.032,17.834 C6.03544592,14.6978144 7.28459655,11.6914479 9.50465261,9.47626783 C11.7247087,7.26108772 14.7338144,6.01855029 17.87,6.022 L42.122,6.022 C45.2583586,6.01855038 48.2676158,7.26122504 50.4877006,9.47662138 C52.7077854,11.6920177 53.9568191,14.6986411 53.96,17.835 L53.96,42.034 Z" id="Shape"></path>
            <path d="M30,14.45 C21.4523477,14.466561 14.5349776,21.4063001 14.5460129,29.9539613 C14.5570482,38.5016224 21.4923141,45.4234774 30.0399806,45.4179677 C38.5876472,45.4124581 45.513984,38.4816683 45.514,29.934 C45.4947057,21.3787158 38.5553055,14.4527346 30,14.45 Z M30,39.4 C24.7775833,39.3884081 20.5522867,35.1474549 20.5600103,29.9250311 C20.567734,24.7026073 24.8055564,20.4741705 30.0279845,20.4780259 C35.2504126,20.4818813 39.4819871,24.7165705 39.482,29.939 C39.4759282,35.1698517 35.2308523,39.405526 30,39.4 Z M49.263,14.566 C49.2662373,16.0709189 48.3621874,17.4294545 46.9727517,18.0076066 C45.583316,18.5857586 43.9823974,18.2695545 42.9171115,17.2065601 C41.8518255,16.1435657 41.5321746,14.5433317 42.1073333,13.1526542 C42.6824919,11.7619768 44.0390777,10.8550035 45.544,10.855 C46.5293605,10.8536731 47.4748611,11.2439708 48.1723666,11.9399759 C48.8698721,12.635981 49.262205,13.580639 49.263,14.566 Z" id="Shape"></path>
        </g>
    </g>
</svg>