<svg xmlns="http://www.w3.org/2000/svg" viewBox="0 0 64 64" aria-labelledby="title"
aria-describedby="desc" role="img" xmlns:xlink="http://www.w3.org/1999/xlink">
  <title>Gastronomy</title>
  <desc>A color styled icon from Orion Icon Library.</desc>
  <path data-name="layer3"
  fill="#fff" d="M12 62L2 60V42h10v20z"></path>
  <path data-name="opacity" fill="#101129" opacity=".25" d="M2 60l10 2v-4L2 56v4z"></path>
  <path data-name="layer2" d="M12 58a39.2 39.2 0 0 0 10.6 2h28.8c3.6 0 2.7-3.2 1.9-4-4-4-11.9-4-16-4H34c-.9-8-20-8-22-8z"
  fill="#f7d8bc"></path>
  <path data-name="opacity" d="M51.4 57H22.6A39.2 39.2 0 0 1 12 55v3a39.2 39.2 0 0 0 10.6 2h28.8c3.3 0 2.8-2.7 2.2-3.7a2.8 2.8 0 0 1-2.2.7z"
  fill="#101129" opacity=".25"></path>
  <path data-name="layer1" d="M14 32v-2.6C14 17.1 23.7 8 36 8s22 9.1 22 21.4V32"
  fill="#c4d3e0"></path>
  <path data-name="opacity" d="M36 8h-2.2c10.9 1.1 16.7 9.7 16.7 21.3V32h5.1v-2.6C55.7 17.1 48.3 8 36 8z"
  fill="#fff" opacity=".5"></path>
  <path data-name="opacity" d="M19.7 27.7c0-9.1 5.4-16 13.2-19.5C22.1 9.7 14 18.2 14 29.4V32h5.7z"
  fill="#101129" opacity=".25"></path>
  <path data-name="layer1" d="M60 32l-1.7 3.7a3.6 3.6 0 0 1-3.4 2.3H17.1a4.2 4.2 0 0 1-3.4-2.3L12 32"
  fill="#c4d3e0"></path>
  <path data-name="opacity" d="M17.1 37.3l-1.7-3.7h43.9L60 32H12l1.7 3.7a4.2 4.2 0 0 0 3.4 2.3h.5z"
  fill="#101129" opacity=".25"></path>
  <path data-name="layer1" d="M32.6 8.2a4 4 0 1 1 6.8.1" fill="#c4d3e0"></path>
  <path data-name="stroke" fill="none" stroke="#2f446a" stroke-linecap="round"
  stroke-linejoin="round" stroke-width="2" d="M12 62L2 60V42h10v20zm0-18c2 0 21.1 0 22 8m-10 0h13.3c4.1 0 12 0 16 4 .8.8 1.7 4-1.9 4H22.6A39.2 39.2 0 0 1 12 58m2-26v-2a22 22 0 0 1 44 0v2m-48 0h52m-2 0l-1.7 3.4a3.7 3.7 0 0 1-3.5 2.6H17.2a4.2 4.2 0 0 1-3.5-2.6L12 32M32.6 8.1a4 4 0 1 1 6.7.1"></path>
</svg>