<svg xmlns="http://www.w3.org/2000/svg" viewBox="0 0 64 64" aria-labelledby="title"
aria-describedby="desc" role="img" xmlns:xlink="http://www.w3.org/1999/xlink">
  <title>Conversations</title>
  <desc>A color styled icon from Orion Icon Library.</desc>
  <path data-name="layer1"
  d="M37 5.9H17A15 15 0 0 0 12 35v11.9l11-11h14a15 15 0 0 0 0-30z" fill="#a6dbff"></path>
  <path data-name="layer1" d="M51 28h-.7A15 15 0 0 1 37 36h-8.6A11 11 0 0 0 39 50h5.9l9.1 9.1v-9.5A11 11 0 0 0 51 28z"
  fill="#a6dbff"></path>
  <path data-name="opacity" d="M51 28h-.7A15 15 0 0 1 37 36h-8.6A11 11 0 0 0 39 50h5.9l9.1 9.1v-9.5A11 11 0 0 0 51 28z"
  fill="#000064" opacity=".2"></path>
  <path data-name="opacity" d="M40 31H20A15 15 0 0 1 5 16a14.8 14.8 0 0 1 .9-5.1A15 15 0 0 0 12 35.1V47l11-11h14a15 15 0 0 0 14.1-10A15 15 0 0 1 40 31z"
  fill="#000064" opacity=".1"></path>
  <path data-name="stroke" d="M28.4 35.9a11 11 0 0 0 10.6 14h5.9L54 59v-9.5a11 11 0 0 0-3-21.6h-.7"
  fill="none" stroke="#2e4369" stroke-linecap="round" stroke-miterlimit="10"
  stroke-width="2" stroke-linejoin="round"></path>
  <path data-name="stroke" d="M37 5.9H17A15 15 0 0 0 12 35v11.9l11-11h14a15 15 0 0 0 0-30z"
  fill="none" stroke="#2e4369" stroke-linecap="round" stroke-miterlimit="10"
  stroke-width="2" stroke-linejoin="round"></path>
</svg>